<svg width="159" height="18" viewBox="0 0 159 18" fill="none" xmlns="http://www.w3.org/2000/svg">
<path d="M4.45342 18C2.05342 18 0.128418 16.075 0.128418 13.675V4.475C0.128418 2.075 2.05342 0.149999 4.45342 0.149999H21.2784V2.825H4.45342C3.55342 2.825 2.82842 3.575 2.82842 4.475V7.725H21.2784V10.425H2.82842V13.675C2.82842 14.575 3.55342 15.3 4.45342 15.3H21.2784V18H4.45342ZM24.2739 12.8V10.1H35.2239V12.8H24.2739ZM42.5394 18C40.1394 18 38.2144 16.075 38.2144 13.675V4.475C38.2144 2.075 40.1394 0.149999 42.5394 0.149999H59.3644V2.825H42.5394C41.6394 2.825 40.9144 3.575 40.9144 4.475V13.675C40.9144 14.575 41.6394 15.3 42.5394 15.3H55.6394C56.5394 15.3 57.2644 14.575 57.2644 13.675V10.425H46.5394V7.725H59.9394V13.675C59.9394 16.075 58.0144 18 55.6394 18H42.5394ZM67.2708 18C64.8708 18 62.9458 16.075 62.9458 13.675V0.149999H65.6458V13.675C65.6458 14.575 66.3708 15.3 67.2708 15.3H80.3708C81.2708 15.3 81.9958 14.575 81.9958 13.675V0.149999H84.6708V13.675C84.6708 16.075 82.7458 18 80.3708 18H67.2708ZM106.727 18V10.425H90.3772V18H87.6772V4.475C87.6772 2.075 89.6022 0.149999 92.0022 0.149999H105.102C107.477 0.149999 109.402 2.075 109.402 4.475V18H106.727ZM106.727 7.725V4.475C106.727 3.575 106.002 2.825 105.102 2.825H92.0022C91.1022 2.825 90.3772 3.575 90.3772 4.475V7.725H106.727ZM131.459 18V12.05C131.459 11.15 130.734 10.425 129.834 10.425H116.284V7.725H129.834C130.734 7.725 131.459 7 131.459 6.1V4.475C131.459 3.575 130.734 2.825 129.834 2.825H115.109V18H112.409V0.149999H129.834C132.209 0.149999 134.134 2.075 134.134 4.475V6.1C134.134 7.225 133.709 8.275 132.959 9.075C133.709 9.875 134.134 10.925 134.134 12.05V18H131.459ZM137.14 18V0.149999H154.565C156.94 0.149999 158.865 2.075 158.865 4.475V13.675C158.865 16.075 156.94 18 154.565 18H137.14ZM154.565 15.3C155.465 15.3 156.19 14.575 156.19 13.675V4.475C156.19 3.575 155.465 2.825 154.565 2.825H139.84V15.3H154.565Z" fill="white"/>
</svg>
